<svg width="19" height="19" viewBox="0 0 19 19" fill="none" xmlns="http://www.w3.org/2000/svg">
<path d="M4.1875 0.75C5.04688 0.75 5.75 1.45312 5.75 2.3125V4.1875C5.75 5.08594 5.04688 5.75 4.1875 5.75H2.3125C1.41406 5.75 0.75 5.08594 0.75 4.1875V2.3125C0.75 1.45312 1.41406 0.75 2.3125 0.75H4.1875ZM4.1875 2H2.3125C2.11719 2 2 2.15625 2 2.3125V4.1875C2 4.38281 2.11719 4.5 2.3125 4.5H4.1875C4.34375 4.5 4.5 4.38281 4.5 4.1875V2.3125C4.5 2.15625 4.34375 2 4.1875 2ZM4.1875 7C5.04688 7 5.75 7.70312 5.75 8.5625V10.4375C5.75 11.3359 5.04688 12 4.1875 12H2.3125C1.41406 12 0.75 11.3359 0.75 10.4375V8.5625C0.75 7.70312 1.41406 7 2.3125 7H4.1875ZM4.1875 8.25H2.3125C2.11719 8.25 2 8.40625 2 8.5625V10.4375C2 10.6328 2.11719 10.75 2.3125 10.75H4.1875C4.34375 10.75 4.5 10.6328 4.5 10.4375V8.5625C4.5 8.40625 4.34375 8.25 4.1875 8.25ZM0.75 14.8125C0.75 13.9531 1.41406 13.25 2.3125 13.25H4.1875C5.04688 13.25 5.75 13.9531 5.75 14.8125V16.6875C5.75 17.5859 5.04688 18.25 4.1875 18.25H2.3125C1.41406 18.25 0.75 17.5859 0.75 16.6875V14.8125ZM2 14.8125V16.6875C2 16.8828 2.11719 17 2.3125 17H4.1875C4.34375 17 4.5 16.8828 4.5 16.6875V14.8125C4.5 14.6562 4.34375 14.5 4.1875 14.5H2.3125C2.11719 14.5 2 14.6562 2 14.8125ZM10.4375 0.75C11.2969 0.75 12 1.45312 12 2.3125V4.1875C12 5.08594 11.2969 5.75 10.4375 5.75H8.5625C7.66406 5.75 7 5.08594 7 4.1875V2.3125C7 1.45312 7.66406 0.75 8.5625 0.75H10.4375ZM10.4375 2H8.5625C8.36719 2 8.25 2.15625 8.25 2.3125V4.1875C8.25 4.38281 8.36719 4.5 8.5625 4.5H10.4375C10.5938 4.5 10.75 4.38281 10.75 4.1875V2.3125C10.75 2.15625 10.5938 2 10.4375 2ZM7 8.5625C7 7.70312 7.66406 7 8.5625 7H10.4375C11.2969 7 12 7.70312 12 8.5625V10.4375C12 11.3359 11.2969 12 10.4375 12H8.5625C7.66406 12 7 11.3359 7 10.4375V8.5625ZM8.25 8.5625V10.4375C8.25 10.6328 8.36719 10.75 8.5625 10.75H10.4375C10.5938 10.75 10.75 10.6328 10.75 10.4375V8.5625C10.75 8.40625 10.5938 8.25 10.4375 8.25H8.5625C8.36719 8.25 8.25 8.40625 8.25 8.5625ZM10.4375 13.25C11.2969 13.25 12 13.9531 12 14.8125V16.6875C12 17.5859 11.2969 18.25 10.4375 18.25H8.5625C7.66406 18.25 7 17.5859 7 16.6875V14.8125C7 13.9531 7.66406 13.25 8.5625 13.25H10.4375ZM10.4375 14.5H8.5625C8.36719 14.5 8.25 14.6562 8.25 14.8125V16.6875C8.25 16.8828 8.36719 17 8.5625 17H10.4375C10.5938 17 10.75 16.8828 10.75 16.6875V14.8125C10.75 14.6562 10.5938 14.5 10.4375 14.5ZM13.25 2.3125C13.25 1.45312 13.9141 0.75 14.8125 0.75H16.6875C17.5469 0.75 18.25 1.45312 18.25 2.3125V4.1875C18.25 5.08594 17.5469 5.75 16.6875 5.75H14.8125C13.9141 5.75 13.25 5.08594 13.25 4.1875V2.3125ZM14.5 2.3125V4.1875C14.5 4.38281 14.6172 4.5 14.8125 4.5H16.6875C16.8438 4.5 17 4.38281 17 4.1875V2.3125C17 2.15625 16.8438 2 16.6875 2H14.8125C14.6172 2 14.5 2.15625 14.5 2.3125ZM16.6875 7C17.5469 7 18.25 7.70312 18.25 8.5625V10.4375C18.25 11.3359 17.5469 12 16.6875 12H14.8125C13.9141 12 13.25 11.3359 13.25 10.4375V8.5625C13.25 7.70312 13.9141 7 14.8125 7H16.6875ZM16.6875 8.25H14.8125C14.6172 8.25 14.5 8.40625 14.5 8.5625V10.4375C14.5 10.6328 14.6172 10.75 14.8125 10.75H16.6875C16.8438 10.75 17 10.6328 17 10.4375V8.5625C17 8.40625 16.8438 8.25 16.6875 8.25ZM13.25 14.8125C13.25 13.9531 13.9141 13.25 14.8125 13.25H16.6875C17.5469 13.25 18.25 13.9531 18.25 14.8125V16.6875C18.25 17.5859 17.5469 18.25 16.6875 18.25H14.8125C13.9141 18.25 13.25 17.5859 13.25 16.6875V14.8125ZM14.5 14.8125V16.6875C14.5 16.8828 14.6172 17 14.8125 17H16.6875C16.8438 17 17 16.8828 17 16.6875V14.8125C17 14.6562 16.8438 14.5 16.6875 14.5H14.8125C14.6172 14.5 14.5 14.6562 14.5 14.8125Z" fill="#D9D9D9"/>
</svg>
