<svg width="40" height="40" viewBox="0 0 40 40" fill="none" xmlns="http://www.w3.org/2000/svg">
<g clip-path="url(#clip0_3121_13336)">
<path d="M20 40C31.0457 40 40 31.0457 40 20C40 8.9543 31.0457 0 20 0C8.9543 0 0 8.9543 0 20C0 31.0457 8.9543 40 20 40Z" fill="url(#paint0_linear_3121_13336)"/>
<g filter="url(#filter0_d_3121_13336)">
<path d="M14.6667 29.7775H25.3333V30.6663H14.6667V29.7775ZM10.7511 13.6575C10.5822 12.9419 10.6622 12.333 10.9689 12.0263C11.1156 11.8797 11.2311 11.8486 11.3333 11.8486C11.3511 11.8486 11.3689 11.8486 11.3867 11.853C11.72 11.8841 12.1156 12.1952 12.4489 12.533C12.4267 11.8486 12.4267 11.2619 12.4311 10.8352C12.1467 10.6752 11.84 10.5597 11.5156 10.5241C10.96 10.4663 10.4489 10.6619 10.0267 11.0841C9.38222 11.7286 9.17334 12.7775 9.45334 13.9641C9.78667 15.3863 10.96 17.2708 13.1778 18.3908C13.0222 17.8219 12.9022 17.2175 12.8044 16.5997C11.6178 15.7108 10.9644 14.5641 10.7511 13.6575ZM24 27.9997V27.1108C24 26.373 23.4044 25.7775 22.6667 25.7775H21.3733H20.8889H19.1111H18.6267H17.3333C16.5956 25.7775 16 26.373 16 27.1108V27.9997V28.4441V28.8886H24V28.4441V27.9997ZM26.6578 10.3152C26.68 11.2041 26.7956 18.253 24.9067 20.4441C22.9333 22.733 21.6311 22.1463 21.3333 24.7197V24.8886H21.3111H20.4311H19.5556H18.6756H18.6667V24.813C18.3911 22.1286 17.08 22.7597 15.08 20.4441C13.0667 18.1063 13.3333 10.2352 13.3333 10.2219C13.3333 9.73301 13.7333 9.33301 14.2222 9.33301H25.7778C26.2667 9.33301 26.6667 9.73301 26.6667 10.2219C26.6667 10.253 26.6622 10.2841 26.6578 10.3152ZM22.6578 14.733L20.8178 14.4663L19.9956 12.7997L19.1733 14.4663L17.3333 14.733L18.6667 16.0308L18.3511 17.8619L19.9956 16.9952L21.64 17.8619L21.3244 16.0308L22.6578 14.733ZM29.9733 11.0841C29.5511 10.6619 29.04 10.4663 28.4844 10.5241C28.16 10.5552 27.8489 10.6752 27.56 10.8397C27.5644 11.3019 27.5644 11.8841 27.5467 12.5419C27.8844 12.1997 28.2844 11.8841 28.6222 11.853C28.64 11.853 28.6578 11.8486 28.6756 11.8486C28.7733 11.8486 28.8933 11.8797 29.04 12.0263C29.3467 12.333 29.4267 12.9419 29.2578 13.6575C29.0444 14.5641 28.3867 15.7152 27.1956 16.6041C27.0978 17.2219 26.9733 17.8263 26.8178 18.3952C29.0444 17.2752 30.2178 15.3863 30.5511 13.9641C30.8267 12.7775 30.6178 11.7286 29.9733 11.0841Z" fill="white"/>
</g>
</g>
<defs>
<filter id="filter0_d_3121_13336" x="-0.668221" y="3.33301" width="41.338" height="41.333" filterUnits="userSpaceOnUse" color-interpolation-filters="sRGB">
<feFlood flood-opacity="0" result="BackgroundImageFix"/>
<feColorMatrix in="SourceAlpha" type="matrix" values="0 0 0 0 0 0 0 0 0 0 0 0 0 0 0 0 0 0 127 0" result="hardAlpha"/>
<feOffset dy="4"/>
<feGaussianBlur stdDeviation="5"/>
<feComposite in2="hardAlpha" operator="out"/>
<feColorMatrix type="matrix" values="0 0 0 0 0 0 0 0 0 0 0 0 0 0 0 0 0 0 0.35 0"/>
<feBlend mode="normal" in2="BackgroundImageFix" result="effect1_dropShadow_3121_13336"/>
<feBlend mode="normal" in="SourceGraphic" in2="effect1_dropShadow_3121_13336" result="shape"/>
</filter>
<linearGradient id="paint0_linear_3121_13336" x1="5.85787" y1="34.1421" x2="34.1421" y2="5.85787" gradientUnits="userSpaceOnUse">
<stop stop-color="#3ABCD4"/>
<stop offset="1" stop-color="#BBD982"/>
</linearGradient>
<clipPath id="clip0_3121_13336">
<rect width="40" height="40" fill="white"/>
</clipPath>
</defs>
</svg>
