<svg width="40" height="40" viewBox="0 0 40 40" fill="none" xmlns="http://www.w3.org/2000/svg">
<g clip-path="url(#clip0_3121_13327)">
<path d="M20 40C31.0457 40 40 31.0457 40 20C40 8.9543 31.0457 0 20 0C8.9543 0 0 8.9543 0 20C0 31.0457 8.9543 40 20 40Z" fill="url(#paint0_linear_3121_13327)"/>
<g filter="url(#filter0_d_3121_13327)">
<path d="M16.0711 23.3463L14.3067 24.653C14.3956 24.8619 14.4444 25.093 14.4444 25.333C14.4444 26.3152 13.6489 27.1108 12.6667 27.1108C11.6844 27.1108 10.8889 26.3152 10.8889 25.333C10.8889 24.3508 11.6844 23.5552 12.6667 23.5552C13.0844 23.5552 13.4622 23.7063 13.7644 23.9463L15.5689 22.6086C15.72 22.8663 15.8844 23.1152 16.0711 23.3463ZM23.7556 16.013L24.9067 14.4308C25.24 14.5819 25.6089 14.6663 26 14.6663C27.4711 14.6663 28.6667 13.4708 28.6667 11.9997C28.6667 10.5286 27.4711 9.33301 26 9.33301C24.5289 9.33301 23.3333 10.5286 23.3333 11.9997C23.3333 12.7641 23.6533 13.4486 24.1689 13.933L23.04 15.4752C23.2933 15.6352 23.5333 15.813 23.7556 16.013ZM27.7778 23.5552C27.1244 23.5552 26.5289 23.7908 26.0667 24.1775L24.6222 23.013C24.4533 23.2575 24.2622 23.4886 24.0578 23.7019L25.4933 24.8575C25.2533 25.2575 25.1156 25.7241 25.1156 26.2219C25.1156 27.693 26.3111 28.8886 27.7822 28.8886C29.2533 28.8886 30.4489 27.693 30.4489 26.2219C30.4489 24.7508 29.2489 23.5552 27.7778 23.5552ZM13.2756 16.2975L15.4311 17.6708C15.56 17.4041 15.7111 17.1463 15.8844 16.9063L13.8 15.5775C13.9244 15.2975 14 14.9908 14 14.6663C14 13.4397 13.0044 12.4441 11.7778 12.4441C10.5511 12.4441 9.55556 13.4397 9.55556 14.6663C9.55556 15.893 10.5511 16.8886 11.7778 16.8886C12.3556 16.8886 12.88 16.6619 13.2756 16.2975ZM20.6667 26.2663V25.3108C20.52 25.3241 20.3733 25.333 20.2222 25.333C20.0711 25.333 19.9244 25.3241 19.7778 25.3108V26.2663C18.7644 26.4708 18 27.3686 18 28.4441C18 29.6708 18.9956 30.6663 20.2222 30.6663C21.4489 30.6663 22.4444 29.6708 22.4444 28.4441C22.4444 27.3686 21.68 26.4708 20.6667 26.2663ZM20.2222 15.5552C17.7689 15.5552 15.7778 17.5463 15.7778 19.9997C15.7778 22.453 17.7689 24.4441 20.2222 24.4441C22.6756 24.4441 24.6667 22.453 24.6667 19.9997C24.6667 17.5463 22.6756 15.5552 20.2222 15.5552Z" fill="white"/>
</g>
</g>
<defs>
<filter id="filter0_d_3121_13327" x="-0.444443" y="3.33301" width="40.8933" height="41.333" filterUnits="userSpaceOnUse" color-interpolation-filters="sRGB">
<feFlood flood-opacity="0" result="BackgroundImageFix"/>
<feColorMatrix in="SourceAlpha" type="matrix" values="0 0 0 0 0 0 0 0 0 0 0 0 0 0 0 0 0 0 127 0" result="hardAlpha"/>
<feOffset dy="4"/>
<feGaussianBlur stdDeviation="5"/>
<feComposite in2="hardAlpha" operator="out"/>
<feColorMatrix type="matrix" values="0 0 0 0 0 0 0 0 0 0 0 0 0 0 0 0 0 0 0.35 0"/>
<feBlend mode="normal" in2="BackgroundImageFix" result="effect1_dropShadow_3121_13327"/>
<feBlend mode="normal" in="SourceGraphic" in2="effect1_dropShadow_3121_13327" result="shape"/>
</filter>
<linearGradient id="paint0_linear_3121_13327" x1="5.85787" y1="34.1421" x2="34.1421" y2="5.85787" gradientUnits="userSpaceOnUse">
<stop stop-color="#3ABCD4"/>
<stop offset="1" stop-color="#BBD982"/>
</linearGradient>
<clipPath id="clip0_3121_13327">
<rect width="40" height="40" fill="white"/>
</clipPath>
</defs>
</svg>
