<svg width="40" height="40" viewBox="0 0 40 40" fill="none" xmlns="http://www.w3.org/2000/svg">
<g clip-path="url(#clip0_3121_13339)">
<path d="M20 40C31.0457 40 40 31.0457 40 20C40 8.9543 31.0457 0 20 0C8.9543 0 0 8.9543 0 20C0 31.0457 8.9543 40 20 40Z" fill="url(#paint0_linear_3121_13339)"/>
<g filter="url(#filter0_d_3121_13339)">
<path d="M19.7644 23.9819L12.1244 21.413L12.8756 19.3375L16.2578 20.4752L19.7644 23.9819ZM17.3333 14.2219C17.3333 13.2397 18.1289 12.4441 19.1111 12.4441C20.0933 12.4441 20.8889 13.2397 20.8889 14.2219C20.8889 15.2041 20.0933 15.9997 19.1111 15.9997C18.1289 15.9997 17.3333 15.2041 17.3333 14.2219ZM18.2222 14.2219C18.2222 14.7108 18.6222 15.1108 19.1111 15.1108C19.6 15.1108 20 14.7108 20 14.2219C20 13.733 19.6 13.333 19.1111 13.333C18.6222 13.333 18.2222 13.733 18.2222 14.2219ZM22.2222 18.6663C22.3378 18.6663 22.4489 18.6219 22.5378 18.5375C25.6222 15.453 23.5289 11.3908 23.5067 11.3508C23.3911 11.133 23.1244 11.053 22.9067 11.1641C22.6889 11.2797 22.6044 11.5463 22.72 11.7641C22.7956 11.9063 24.5244 15.293 21.9111 17.9108C21.7378 18.0841 21.7378 18.3641 21.9111 18.5375C21.9956 18.6219 22.1067 18.6663 22.2222 18.6663ZM13.1778 18.5019L14.8444 19.0619L13.4756 17.693L13.1778 18.5019ZM11.8178 22.2486L11.0667 24.3241L20.0533 27.3419L22.3111 26.5241L21.1778 25.3908L11.8178 22.2486ZM9.45778 28.7597C9.22667 29.2575 9.30667 29.8663 9.72 30.2797C10.1289 30.6886 10.7378 30.773 11.2356 30.5375L11.24 30.5419L14.0356 29.5286L9.71111 28.0752L9.45778 28.7597ZM25.5822 19.9241C26.2533 20.1908 26.92 20.6886 27.48 21.533C28.1289 22.5019 27.9733 23.0486 27.7333 23.333C27.5467 23.5552 27.2578 23.6663 26.9156 23.6663C26.6489 23.6663 26.3422 23.5952 26.0311 23.4575C25.1156 23.0441 24.2711 22.0752 24.4489 20.8308C24.4622 20.7419 24.4756 20.653 24.4933 20.5641C23.6178 20.4797 22.92 20.8175 22.8667 20.8441C22.6444 20.9552 22.3778 20.8663 22.2711 20.6441C22.16 20.4263 22.2489 20.1597 22.4711 20.0486C22.9822 19.7908 23.8178 19.5775 24.72 19.6975C25.5422 17.3641 27.5333 17.333 27.5556 17.333C27.8 17.333 28 17.533 28 17.7775C28 18.0219 27.8 18.2219 27.5556 18.2219C27.4933 18.2219 26.2 18.2663 25.5822 19.9241ZM25.3556 20.7863C25.3467 20.8397 25.3378 20.893 25.3289 20.9508C25.2 21.853 25.9422 22.3819 26.1733 22.5241C26.6311 22.8041 26.9956 22.7997 27.0622 22.7508C27.0667 22.7197 27.0489 22.4841 26.7422 22.0263C26.3111 21.3819 25.8311 20.9997 25.3556 20.7863ZM29.5511 11.6175L30.1511 9.84856L28.3822 10.4486L26.8844 9.33301L26.9067 11.1997L25.3822 12.2752L27.1644 12.8308L27.72 14.613L28.8 13.0886L30.6667 13.1108L29.5511 11.6175ZM10.0133 27.2397L15.3778 29.0441L18.7156 27.8352L10.7689 25.1641L10.0133 27.2397ZM14.7467 15.1952C14.5733 15.0219 14.2933 15.0219 14.12 15.1952L13.4933 15.8219C13.32 15.9952 13.32 16.2752 13.4933 16.4486L23.5511 26.5063C23.7244 26.6797 24.0044 26.6797 24.1778 26.5063L24.8044 25.8797C24.9778 25.7063 24.9778 25.4263 24.8044 25.253L14.7467 15.1952Z" fill="white"/>
</g>
</g>
<defs>
<filter id="filter0_d_3121_13339" x="-0.669867" y="3.33301" width="41.3365" height="41.334" filterUnits="userSpaceOnUse" color-interpolation-filters="sRGB">
<feFlood flood-opacity="0" result="BackgroundImageFix"/>
<feColorMatrix in="SourceAlpha" type="matrix" values="0 0 0 0 0 0 0 0 0 0 0 0 0 0 0 0 0 0 127 0" result="hardAlpha"/>
<feOffset dy="4"/>
<feGaussianBlur stdDeviation="5"/>
<feComposite in2="hardAlpha" operator="out"/>
<feColorMatrix type="matrix" values="0 0 0 0 0 0 0 0 0 0 0 0 0 0 0 0 0 0 0.35 0"/>
<feBlend mode="normal" in2="BackgroundImageFix" result="effect1_dropShadow_3121_13339"/>
<feBlend mode="normal" in="SourceGraphic" in2="effect1_dropShadow_3121_13339" result="shape"/>
</filter>
<linearGradient id="paint0_linear_3121_13339" x1="5.85787" y1="34.1421" x2="34.1421" y2="5.85787" gradientUnits="userSpaceOnUse">
<stop stop-color="#3ABCD4"/>
<stop offset="1" stop-color="#BBD982"/>
</linearGradient>
<clipPath id="clip0_3121_13339">
<rect width="40" height="40" fill="white"/>
</clipPath>
</defs>
</svg>
