<svg width="40" height="40" viewBox="0 0 40 40" fill="none" xmlns="http://www.w3.org/2000/svg">
<g clip-path="url(#clip0_3121_13342)">
<path d="M20 40C31.0457 40 40 31.0457 40 20C40 8.9543 31.0457 0 20 0C8.9543 0 0 8.9543 0 20C0 31.0457 8.9543 40 20 40Z" fill="url(#paint0_linear_3121_13342)"/>
<g filter="url(#filter0_d_3121_13342)">
<path d="M20 11.9997C22.1689 11.9997 24 13.0175 24 14.2219H24.8889C24.8889 11.5241 22.6978 9.33301 20 9.33301C17.3022 9.33301 15.1111 11.5241 15.1111 14.2219H16C16 13.0175 17.8311 11.9997 20 11.9997ZM20 10.2219C21.3289 10.2219 22.5022 10.8752 23.2311 11.8708C22.3733 11.3997 21.2489 11.1108 20 11.1108C18.7511 11.1108 17.6267 11.3997 16.7689 11.8708C17.4978 10.8752 18.6711 10.2219 20 10.2219ZM28.0533 15.1108H11.9467L11.1111 28.8886C11.1111 29.8708 11.9067 30.6663 12.8889 30.6663H27.1111C28.0933 30.6663 28.8889 29.8708 28.8889 28.8886L28.0533 15.1108ZM18.7156 26.2041L18.5956 26.0352L18.5733 26.0086L18.5511 25.9819C18.5378 25.9641 18.52 25.9463 18.5067 25.9286C18.4756 25.893 18.4444 25.8575 18.4133 25.8219C18.3956 25.8041 18.3822 25.7863 18.3644 25.7686L18.3156 25.7197L18.2933 25.693L18.2667 25.6708L18.2222 25.6175C18.0889 25.4886 17.9467 25.3686 17.8 25.2619C17.6533 25.1508 17.5022 25.0486 17.3467 24.9552C17.1911 24.8619 17.0311 24.773 16.8711 24.693C16.7067 24.613 16.5422 24.5419 16.3778 24.4752C16.0444 24.3419 15.7022 24.2308 15.36 24.1375C15.6933 24.2619 16.0222 24.4041 16.3378 24.5686C16.4933 24.653 16.6489 24.7375 16.8 24.8308C16.9511 24.9241 17.0978 25.0219 17.2356 25.1286C17.3778 25.2308 17.5111 25.3419 17.64 25.4619C17.7689 25.5775 17.8889 25.7019 18 25.8308L18.04 25.8797L18.0622 25.9063L18.0844 25.933L18.1244 25.9819C18.1378 25.9997 18.1511 26.0175 18.1644 26.0308C18.1911 26.0619 18.2133 26.1019 18.24 26.133C18.2533 26.1508 18.2622 26.1686 18.2756 26.1863L18.2933 26.213L18.3111 26.2397C18.3556 26.3108 18.3956 26.3819 18.4311 26.4575L18.4978 26.5952C18.0267 27.3597 16.8133 27.7108 15.4444 26.7819C13.9911 25.7952 13.9822 23.2041 14.0311 22.5241C14.0489 22.2797 14.0533 22.2663 14.2 22.3552C15.4711 23.1419 16.2222 23.0041 17.2267 23.4663C18.5378 24.0797 18.9822 25.3952 18.7156 26.2041ZM24.3156 24.8175C22.3556 26.5241 20.4311 26.4797 19.5956 25.6308L19.7067 25.3597C19.7556 25.2441 19.8089 25.1286 19.8711 25.013C19.9333 24.9019 20 24.7908 20.0711 24.6797C20.1422 24.573 20.2178 24.4619 20.2978 24.3597C20.6133 23.9419 20.9867 23.5597 21.3822 23.2086L21.4578 23.1419C21.4844 23.1197 21.5067 23.0975 21.5333 23.0752L21.6844 22.9463C21.7378 22.9019 21.7867 22.8619 21.84 22.8219C21.8667 22.7997 21.8933 22.7819 21.92 22.7597L22 22.6975L22.08 22.6352C22.1067 22.613 22.1333 22.5952 22.16 22.573L22.32 22.453C22.3467 22.4352 22.3733 22.413 22.4 22.3952L22.4844 22.3375C22.5378 22.2975 22.5911 22.2575 22.6489 22.2219C23.0933 21.9197 23.5511 21.6397 24.0178 21.3775C23.5333 21.6086 23.0578 21.8619 22.5911 22.133C22.5333 22.1641 22.4756 22.2041 22.4178 22.2397L22.3333 22.293C22.3022 22.3108 22.2756 22.3286 22.2489 22.3463L22.08 22.4575C22.0533 22.4752 22.0222 22.493 21.9956 22.5108L21.9111 22.5775L21.8267 22.6352C21.8 22.653 21.7733 22.6752 21.7422 22.693C21.6889 22.733 21.6311 22.7686 21.5778 22.8086L21.4133 22.9286C21.3867 22.9463 21.36 22.9686 21.3333 22.9908L21.2533 23.053C20.8267 23.3863 20.4178 23.7552 20.0578 24.1686C19.9689 24.2708 19.88 24.3819 19.7956 24.4886C19.7111 24.5997 19.6311 24.7152 19.56 24.8308C19.4844 24.9508 19.3689 25.1063 19.3111 25.3863C18.5467 24.333 19.04 22.3775 21.08 21.0397C22.5556 20.0752 23.7111 20.1019 25.5244 18.5819C25.8133 18.3375 25.7956 18.4041 25.8489 18.6752C26.0267 19.5641 26.4044 23.0041 24.3156 24.8175Z" fill="white"/>
</g>
</g>
<defs>
<filter id="filter0_d_3121_13342" x="-8.88889" y="-0.666992" width="57.7778" height="61.333" filterUnits="userSpaceOnUse" color-interpolation-filters="sRGB">
<feFlood flood-opacity="0" result="BackgroundImageFix"/>
<feColorMatrix in="SourceAlpha" type="matrix" values="0 0 0 0 0 0 0 0 0 0 0 0 0 0 0 0 0 0 127 0" result="hardAlpha"/>
<feOffset dy="10"/>
<feGaussianBlur stdDeviation="10"/>
<feComposite in2="hardAlpha" operator="out"/>
<feColorMatrix type="matrix" values="0 0 0 0 0.177146 0 0 0 0 0.220833 0 0 0 0 0.0910937 0 0 0 0.1 0"/>
<feBlend mode="normal" in2="BackgroundImageFix" result="effect1_dropShadow_3121_13342"/>
<feBlend mode="normal" in="SourceGraphic" in2="effect1_dropShadow_3121_13342" result="shape"/>
</filter>
<linearGradient id="paint0_linear_3121_13342" x1="5.85787" y1="34.1421" x2="34.1421" y2="5.85787" gradientUnits="userSpaceOnUse">
<stop stop-color="#3ABCD4"/>
<stop offset="1" stop-color="#BBD982"/>
</linearGradient>
<clipPath id="clip0_3121_13342">
<rect width="40" height="40" fill="white"/>
</clipPath>
</defs>
</svg>
